<svg width="66" height="66" viewBox="0 0 66 66" fill="none" xmlns="http://www.w3.org/2000/svg">
<path d="M57.9508 8.1204C57.7035 8.1204 57.4586 8.16912 57.2302 8.26377C57.0017 8.35843 56.7941 8.49717 56.6193 8.67206C56.4445 8.84696 56.3058 9.05459 56.2113 9.28308C56.1167 9.51158 56.0681 9.75647 56.0681 10.0038L56.0852 56.9631C56.0847 57.9145 55.7067 58.8268 55.0341 59.4997C54.3615 60.1726 53.4493 60.5511 52.4979 60.5519H13.3346C12.5087 60.5537 11.7102 60.2557 11.0875 59.7133C10.4647 59.1709 10.0599 58.4209 9.94835 57.6026C9.83677 56.7843 10.0259 55.9533 10.4807 55.2639C10.9355 54.5745 11.6251 54.0736 12.4212 53.8542C12.7404 53.7608 13.0713 53.7136 13.4038 53.7141H48.3646C49.6353 53.7142 50.8541 53.2096 51.7527 52.3113C52.6514 51.4129 53.1564 50.1943 53.1567 48.9236L53.1616 5.3579C53.1618 4.87736 53.0674 4.40147 52.8837 3.95743C52.7 3.51339 52.4306 3.10991 52.0908 2.77003C51.7511 2.43016 51.3478 2.16056 50.9038 1.97663C50.4598 1.79271 49.984 1.69807 49.5035 1.69812H9.95508C8.98467 1.69835 8.05409 2.08405 7.36807 2.77038C6.68204 3.45672 6.29675 4.38746 6.29695 5.35787V55.7807C6.12298 56.6755 6.12298 57.5953 6.29695 58.4901C6.6139 60.1247 7.48926 61.5983 8.77312 62.6585C10.057 63.7188 11.6695 64.2997 13.3346 64.3019H52.4979C54.2732 64.2998 55.9876 63.6548 57.324 62.4863C58.6604 61.3177 59.5285 59.7047 59.7675 57.9457C59.8123 57.6201 59.8344 57.2917 59.8335 56.9631V10.0031C59.8335 9.75582 59.7848 9.511 59.6902 9.28259C59.5956 9.05417 59.4569 8.84663 59.2821 8.6718C59.1073 8.49698 58.8997 8.35831 58.6713 8.2637C58.4429 8.16909 58.1981 8.12039 57.9508 8.1204ZM16.7076 19.2236C16.7077 18.94 16.8204 18.668 17.021 18.4675C17.2215 18.2669 17.4935 18.1542 17.7771 18.1541H41.2964C41.58 18.1542 41.852 18.2669 42.0526 18.4675C42.2531 18.668 42.3659 18.94 42.366 19.2236V36.3287C42.3661 36.4692 42.3384 36.6083 42.2847 36.7381C42.231 36.8679 42.1522 36.9859 42.0529 37.0852C41.9535 37.1845 41.8356 37.2633 41.7058 37.317C41.576 37.3708 41.4369 37.3984 41.2964 37.3983H17.7771C17.6367 37.3984 17.4975 37.3708 17.3677 37.317C17.2379 37.2633 17.12 37.1845 17.0207 37.0852C16.9213 36.9859 16.8425 36.8679 16.7888 36.7381C16.7351 36.6083 16.7075 36.4692 16.7076 36.3287V19.2236Z" fill="#707070"/>
<path d="M24.1915 26.3207H30.6056C30.7866 26.3207 30.9603 26.2487 31.0884 26.1207C31.2164 25.9926 31.2884 25.819 31.2884 25.6379C31.2884 25.4568 31.2164 25.2831 31.0884 25.1551C30.9603 25.027 30.7866 24.9551 30.6056 24.9551H24.1915C24.0104 24.9551 23.8367 25.027 23.7087 25.1551C23.5806 25.2831 23.5087 25.4568 23.5087 25.6379C23.5087 25.819 23.5806 25.9926 23.7087 26.1207C23.8367 26.2487 24.0104 26.3207 24.1915 26.3207Z" fill="#D44B3D"/>
<path d="M24.1915 30.5974H34.8821C35.0633 30.5974 35.237 30.5255 35.365 30.3974C35.4931 30.2693 35.5651 30.0956 35.5651 29.9145C35.5651 29.7334 35.4931 29.5597 35.365 29.4316C35.237 29.3035 35.0633 29.2316 34.8821 29.2316H24.1915C24.0103 29.2316 23.8366 29.3035 23.7086 29.4316C23.5805 29.5597 23.5085 29.7334 23.5085 29.9145C23.5085 30.0956 23.5805 30.2693 23.7086 30.3974C23.8366 30.5255 24.0103 30.5974 24.1915 30.5974Z" fill="#D44B3D"/>
</svg>
