<svg width="46" height="46" viewBox="0 0 46 46" fill="none" xmlns="http://www.w3.org/2000/svg">
<path fill-rule="evenodd" clip-rule="evenodd" d="M23 3.83337C12.42 3.83337 3.83331 12.42 3.83331 23C3.83331 33.58 12.42 42.1667 23 42.1667C33.58 42.1667 42.1666 33.58 42.1666 23C42.1666 12.42 33.58 3.83337 23 3.83337ZM23 9.58337C26.1816 9.58337 28.75 12.1517 28.75 15.3334C28.75 18.515 26.1816 21.0834 23 21.0834C19.8183 21.0834 17.25 18.515 17.25 15.3334C17.25 12.1517 19.8183 9.58337 23 9.58337ZM23 36.8C18.2083 36.8 13.9725 34.3467 11.5 30.6284C11.5575 26.8142 19.1666 24.725 23 24.725C26.8141 24.725 34.4425 26.8142 34.5 30.6284C32.0275 34.3467 27.7916 36.8 23 36.8Z" fill="#707070"/>
</svg>
